<?xml version="1.0" encoding="UTF-8" standalone="no"?>
<!DOCTYPE svg PUBLIC "-//W3C//DTD SVG 1.1//EN" "http://www.w3.org/Graphics/SVG/1.1/DTD/svg11.dtd">
<svg width="100%" height="100%" viewBox="0 0 125 145" version="1.1" xmlns="http://www.w3.org/2000/svg" xmlns:xlink="http://www.w3.org/1999/xlink" xml:space="preserve" xmlns:serif="http://www.serif.com/" style="fill-rule:evenodd;clip-rule:evenodd;stroke-linejoin:round;stroke-miterlimit:1.41421;">
    <g id="layer1" transform="matrix(1,0,0,1,-235.922,-349.889)">
        <g transform="matrix(5.54737,0,0,5.54737,283.883,6.60249)">
            <path d="M2.594,61.883L13.835,68.372L13.835,81.351L2.594,87.841L-8.646,81.351L-8.646,68.372L2.594,61.883Z" style="fill:white;"/>
            <path d="M13.835,68.372L13.835,81.351L2.594,87.841L-8.646,81.351L-8.646,68.372L2.594,61.883L13.835,68.372ZM-7.744,68.893L-7.744,80.831L2.594,86.8L12.933,80.831L12.933,68.893L2.594,62.924L-7.744,68.893Z" style="fill:rgb(0,33,165);"/>
        </g>
        <g transform="matrix(1.31625,0,0,1.31625,-93.5789,-108.296)">
            <g transform="matrix(1.31766,0,0,1.30507,214.86,340.437)">
                <path d="M55.119,53.065L62.28,57.362L38.165,68.789L32.406,65.773L32.376,59.249L33.415,58.579L33.623,57.018L35.27,57.464L35.459,55.657L37.085,56.128L37.35,54.197L39.161,54.703L39.414,52.584L41.416,53.163L41.65,50.923L43.669,51.583L55.119,43.765L55.119,53.065Z" style="fill:rgb(0,128,0);"/>
            </g>
            <g transform="matrix(1.31766,0,0,1.30507,-96.0758,-116.419)">
                <g transform="matrix(1,0,0,1,235.922,349.889)">
                    <path d="M49.966,24.42L63.422,16.638L75.332,23.529L74.217,24.022L74.075,26.005L72.188,25.279L72.099,27.36L69.864,26.567L69.663,29.06L67.155,28.228L66.968,30.927L64.336,29.759L64.186,32.853L61.476,31.415L61.483,34.725L58.412,33.196L58.412,36.853L55.068,35.127L55.119,39.072L41.917,46.907L41.917,29.076L41.919,29.075C41.918,29.033 41.917,28.991 41.917,28.948C41.917,26.024 44.291,23.65 47.216,23.65C48.223,23.65 49.164,23.932 49.966,24.42Z" style="fill:rgb(0,128,0);"/>
                </g>
                <g transform="matrix(-0.603721,0.797196,-0.797196,-0.603721,344.325,352.162)">
                    <path d="M40.117,23.763C40.117,23.763 39.265,25.192 39.265,25.805C39.265,26.274 39.647,26.654 40.117,26.654C40.586,26.654 40.968,26.274 40.968,25.805C40.968,25.192 40.117,23.763 40.117,23.763Z" style="fill:rgb(157,206,157);"/>
                </g>
                <g transform="matrix(1.48342,0,0,1.48342,210.16,329.163)">
                    <circle cx="48.496" cy="32.118" r="1.152" style="fill:rgb(157,206,157);"/>
                </g>
            </g>
            <g transform="matrix(0.65883,-1.13022,-1.14113,-0.652534,311.316,506.409)">
                <path d="M41.919,29.075C41.918,29.045 63.512,16.449 63.512,16.449L75.465,23.351L74.217,24.022L74.075,26.005L72.188,25.279L72.099,27.36L69.864,26.567L69.663,29.06L67.155,28.228L66.968,30.927L64.336,29.759L64.186,32.853L61.476,31.415L61.483,34.725L58.412,33.196L58.416,36.816L55.175,34.945L55.126,39.007L41.917,46.907L41.917,29.076L41.919,29.075Z" style="fill:rgb(0,128,0);"/>
            </g>
            <g transform="matrix(1.14606,0,0,1.14606,265.625,339.822)">
                <g>
                    <g>
                        <path d="M37.866,37.421L48.912,43.798L48.912,56.552L37.866,62.93L26.82,56.552L26.82,43.798L37.866,37.421Z" style="fill:rgb(250,70,22);"/>
                        <path d="M48.912,43.798L48.912,56.552L37.866,62.93L26.82,56.552L26.82,43.798L37.866,37.421L48.912,43.798ZM28.478,44.755L28.478,55.596L37.866,61.016L47.254,55.596L47.254,44.755L37.866,39.334L28.478,44.755Z" style="fill:rgb(0,33,165);"/>
                    </g>
                </g>
            </g>
        </g>
    </g>
</svg>
