<?xml version="1.0" encoding="UTF-8" standalone="no"?>
<!DOCTYPE svg PUBLIC "-//W3C//DTD SVG 1.1//EN" "http://www.w3.org/Graphics/SVG/1.1/DTD/svg11.dtd">
<svg width="100%" height="100%" viewBox="0 0 520 601" version="1.1" xmlns="http://www.w3.org/2000/svg" xmlns:xlink="http://www.w3.org/1999/xlink" xml:space="preserve" xmlns:serif="http://www.serif.com/" style="fill-rule:evenodd;clip-rule:evenodd;">
    <g transform="matrix(4.16667,0,0,4.16667,0,0)">
        <g id="layer1" transform="matrix(1,0,0,1,-235.922,-349.889)">
            <g transform="matrix(5.54737,0,0,5.54737,283.883,6.60249)">
                <path d="M2.594,61.883L13.835,68.372L13.835,81.351L2.594,87.841L-8.646,81.351L-8.646,68.372L2.594,61.883Z" style="fill:white;"/>
                <path d="M13.835,68.372L13.835,81.351L2.594,87.841L-8.646,81.351L-8.646,68.372L2.594,61.883L13.835,68.372ZM-8.105,68.685L-8.105,81.039L2.594,87.217L13.294,81.039L13.294,68.685L2.594,62.507L-8.105,68.685Z" style="fill:rgb(0,33,165);"/>
            </g>
            <g transform="matrix(1.31766,0,0,1.30507,-96.0758,-116.419)">
                <g transform="matrix(1,0,0,1,235.922,349.889)">
                    <path d="M55.119,53.065L62.28,57.362L38.531,68.616L32.942,65.373L32.942,58.919L33.415,58.579L33.623,57.018L35.27,57.464L35.459,55.657L37.085,56.128L37.35,54.197L39.161,54.703L39.414,52.584L41.416,53.163L41.65,50.923L43.669,51.583L55.119,43.765L55.119,53.065Z" style="fill:rgb(0,128,0);"/>
                </g>
                <g>
                    <g transform="matrix(1,0,0,1,235.922,349.889)">
                        <path d="M49.966,24.42L63.422,16.638L75.332,23.529L74.217,24.022L74.075,26.005L72.188,25.279L72.099,27.36L69.864,26.567L69.663,29.06L67.155,28.228L66.968,30.927L64.336,29.759L64.186,32.853L61.476,31.415L61.483,34.725L58.412,33.196L58.412,36.853L55.068,35.127L55.119,39.072L41.917,46.907L41.917,29.076L41.919,29.075C41.918,29.033 41.917,28.991 41.917,28.948C41.917,26.024 44.291,23.65 47.216,23.65C48.223,23.65 49.164,23.932 49.966,24.42Z" style="fill:rgb(0,128,0);"/>
                    </g>
                    <g transform="matrix(-0.603721,0.797196,-0.797196,-0.603721,344.325,352.162)">
                        <path d="M40.117,23.763C40.117,23.763 39.265,25.192 39.265,25.805C39.265,26.274 39.647,26.654 40.117,26.654C40.586,26.654 40.968,26.274 40.968,25.805C40.968,25.192 40.117,23.763 40.117,23.763Z" style="fill:rgb(157,206,157);"/>
                    </g>
                    <g transform="matrix(1.48342,0,0,1.48342,210.16,329.163)">
                        <circle cx="48.496" cy="32.118" r="1.152" style="fill:rgb(157,206,157);"/>
                    </g>
                </g>
                <g transform="matrix(0.5,-0.866025,-0.866025,-0.5,309.285,477.238)">
                    <path d="M41.919,29.075C41.918,29.045 63.512,16.449 63.512,16.449L75.465,23.351L74.217,24.022L74.075,26.005L72.188,25.279L72.099,27.36L69.864,26.567L69.663,29.06L67.155,28.228L66.968,30.927L64.336,29.759L64.186,32.853L61.476,31.415L61.483,34.725L58.412,33.196L58.416,36.816L55.175,34.945L55.126,39.007L41.917,46.907L41.917,29.076L41.919,29.075Z" style="fill:rgb(0,128,0);"/>
                </g>
            </g>
            <g transform="matrix(1.14606,0,0,1.14606,-42.2238,-53.1722)">
                <g transform="matrix(1,0,0,1,268.615,342.91)">
                    <path d="M37.866,37.421L48.912,43.798L48.912,56.552L37.866,62.93L26.82,56.552L26.82,43.798L37.866,37.421Z" style="fill:rgb(250,70,22);"/>
                </g>
                <g transform="matrix(1,0,0,1,297.604,397.665)">
                    <text x="0px" y="0px" style="font-family:'LucidaGrande-Bold', 'Lucida Grande', sans-serif;font-weight:600;font-size:13px;fill:rgb(7,17,89);">UF</text>
                </g>
            </g>
            <g transform="matrix(1,0,0,1,252.476,462.176)">
                <text x="0px" y="0px" style="font-family:'AvenirNext-Medium', 'Avenir Next', sans-serif;font-weight:500;font-size:12px;fill:rgb(7,17,89);stroke:black;stroke-opacity:0;stroke-width:0.75px;">C<tspan x="9.696px 19.428px 27.996px 36.336px 44.748px 55.212px 63.24px 71.808px 76.26px 84.672px " y="0px 0px 0px 0px 0px 0px 0px 0px 0px 0px ">ARPENTRIES</tspan></text>
            </g>
            <g transform="matrix(1,0,0,1,243.153,450.598)">
                <text x="0px" y="0px" style="font-family:'AvenirNext-Medium', 'Avenir Next', sans-serif;font-weight:500;font-size:9px;fill:rgb(7,17,89);stroke:black;stroke-opacity:0;stroke-width:0.75px;">U<tspan x="6.588px 13.716px 16.335px 22.293px 27.882px 33.588px 38.889px 41.508px " y="0px 0px 0px 0px 0px 0px 0px 0px ">NIVERSIT</tspan>Y <tspan x="54.711px 62.532px 67.824px 70.254px 75.546px 80.055px 87.876px 93.582px 96.201px " y="0px 0px 0px 0px 0px 0px 0px 0px 0px ">OF FLORID</tspan>A</text>
            </g>
        </g>
    </g>
</svg>
