<?xml version="1.0" encoding="UTF-8" standalone="no"?>
<!DOCTYPE svg PUBLIC "-//W3C//DTD SVG 1.1//EN" "http://www.w3.org/Graphics/SVG/1.1/DTD/svg11.dtd">
<svg width="100%" height="100%" viewBox="0 0 125 145" version="1.1" xmlns="http://www.w3.org/2000/svg" xmlns:xlink="http://www.w3.org/1999/xlink" xml:space="preserve" xmlns:serif="http://www.serif.com/" style="fill-rule:evenodd;clip-rule:evenodd;stroke-linejoin:round;stroke-miterlimit:1.41421;">
    <g id="layer1" transform="matrix(1,0,0,1,-235.922,-349.889)">
        <g transform="matrix(2.95694,0,0,2.95694,259.598,184.991)">
            <circle cx="13.081" cy="80.116" r="21.087" style="fill:white;"/>
            <path d="M13.217,59.03L13.353,59.031L13.489,59.033L13.625,59.036L13.76,59.04L13.895,59.045L14.03,59.05L14.165,59.057L14.3,59.064L14.434,59.072L14.568,59.081L14.702,59.091L14.836,59.101L14.969,59.113L15.103,59.125L15.236,59.138L15.368,59.152L15.501,59.167L15.633,59.182L15.765,59.199L15.897,59.216L16.028,59.234L16.159,59.253L16.29,59.272L16.421,59.293L16.551,59.314L16.682,59.336L16.812,59.359L16.941,59.383L17.07,59.407L17.2,59.432L17.328,59.458L17.457,59.485L17.585,59.512L17.713,59.541L17.841,59.57L17.968,59.6L18.095,59.63L18.222,59.662L18.348,59.694L18.474,59.727L18.6,59.76L18.726,59.795L18.851,59.83L18.976,59.866L19.1,59.902L19.225,59.94L19.349,59.978L19.472,60.017L19.595,60.057L19.718,60.097L19.841,60.138L19.963,60.18L20.085,60.222L20.207,60.266L20.328,60.31L20.449,60.354L20.57,60.4L20.69,60.446L20.81,60.493L20.929,60.541L21.048,60.589L21.167,60.638L21.285,60.688L21.404,60.738L21.521,60.789L21.639,60.841L21.755,60.893L21.872,60.946L21.988,61L22.104,61.055L22.219,61.11L22.334,61.166L22.449,61.222L22.563,61.28L22.677,61.338L22.791,61.396L22.904,61.455L23.016,61.515L23.129,61.576L23.24,61.637L23.352,61.699L23.463,61.762L23.573,61.825L23.684,61.889L23.793,61.953L23.903,62.018L24.012,62.084L24.12,62.15L24.228,62.217L24.336,62.285L24.443,62.353L24.55,62.422L24.656,62.492L24.762,62.562L24.867,62.633L24.972,62.704L25.077,62.776L25.181,62.849L25.284,62.922L25.387,62.996L25.49,63.07L25.592,63.145L25.694,63.221L25.795,63.297L25.896,63.374L25.996,63.451L26.096,63.529L26.196,63.608L26.294,63.687L26.393,63.767L26.491,63.847L26.588,63.928L26.685,64.009L26.781,64.091L26.877,64.174L26.973,64.257L27.068,64.341L27.162,64.425L27.256,64.51L27.349,64.595L27.442,64.681L27.535,64.768L27.626,64.855L27.718,64.942L27.808,65.031L27.899,65.119L27.988,65.208L28.078,65.298L28.166,65.388L28.254,65.479L28.342,65.57L28.429,65.662L28.516,65.755L28.601,65.847L28.687,65.941L28.772,66.035L28.856,66.129L28.94,66.224L29.023,66.319L29.105,66.415L29.187,66.512L29.269,66.609L29.35,66.706L29.43,66.804L29.51,66.902L29.589,67.001L29.668,67.101L29.746,67.2L29.823,67.301L29.9,67.402L29.976,67.503L30.052,67.605L30.127,67.707L30.201,67.809L30.275,67.913L30.348,68.016L30.421,68.12L30.493,68.225L30.564,68.33L30.635,68.435L30.705,68.541L30.775,68.647L30.844,68.754L30.912,68.861L30.98,68.969L31.047,69.077L31.113,69.185L31.179,69.294L31.244,69.403L31.308,69.513L31.372,69.623L31.435,69.734L31.498,69.845L31.56,69.956L31.621,70.068L31.681,70.181L31.741,70.293L31.801,70.406L31.859,70.52L31.917,70.634L31.974,70.748L32.031,70.862L32.087,70.977L32.142,71.093L32.197,71.209L32.25,71.325L32.304,71.441L32.356,71.558L32.408,71.676L32.459,71.793L32.509,71.911L32.559,72.03L32.608,72.149L32.656,72.268L32.704,72.387L32.751,72.507L32.797,72.627L32.842,72.748L32.887,72.869L32.931,72.99L32.974,73.112L33.017,73.234L33.059,73.356L33.1,73.479L33.14,73.601L33.18,73.725L33.219,73.848L33.257,73.972L33.294,74.097L33.331,74.221L33.367,74.346L33.402,74.471L33.437,74.597L33.47,74.723L33.503,74.849L33.535,74.975L33.567,75.102L33.597,75.229L33.627,75.356L33.656,75.484L33.685,75.612L33.712,75.74L33.739,75.869L33.765,75.997L33.79,76.126L33.814,76.256L33.838,76.385L33.861,76.515L33.883,76.645L33.904,76.776L33.924,76.906L33.944,77.037L33.963,77.169L33.981,77.3L33.998,77.432L34.014,77.564L34.03,77.696L34.045,77.829L34.059,77.961L34.072,78.094L34.084,78.227L34.095,78.361L34.106,78.495L34.116,78.628L34.125,78.763L34.133,78.897L34.14,79.032L34.146,79.166L34.152,79.301L34.157,79.437L34.161,79.572L34.164,79.708L34.166,79.844L34.167,79.98L34.168,80.116L34.167,80.252L34.166,80.388L34.164,80.524L34.161,80.66L34.157,80.795L34.152,80.931L34.146,81.066L34.14,81.2L34.133,81.335L34.125,81.469L34.116,81.603L34.106,81.737L34.095,81.871L34.084,82.005L34.072,82.138L34.059,82.271L34.045,82.403L34.03,82.536L34.014,82.668L33.998,82.8L33.981,82.932L33.963,83.063L33.944,83.195L33.924,83.325L33.904,83.456L33.883,83.587L33.861,83.717L33.838,83.847L33.814,83.976L33.79,84.106L33.765,84.235L33.739,84.363L33.712,84.492L33.685,84.62L33.656,84.748L33.627,84.876L33.597,85.003L33.567,85.13L33.535,85.257L33.503,85.383L33.47,85.509L33.437,85.635L33.402,85.761L33.367,85.886L33.331,86.011L33.294,86.135L33.257,86.26L33.219,86.384L33.18,86.507L33.14,86.63L33.1,86.753L33.059,86.876L33.017,86.998L32.974,87.12L32.931,87.242L32.887,87.363L32.842,87.484L32.797,87.605L32.751,87.725L32.704,87.845L32.656,87.964L32.608,88.083L32.559,88.202L32.509,88.321L32.459,88.439L32.408,88.556L32.356,88.674L32.304,88.791L32.25,88.907L32.197,89.023L32.142,89.139L32.087,89.255L32.031,89.37L31.974,89.484L31.917,89.598L31.859,89.712L31.801,89.826L31.741,89.939L31.681,90.051L31.621,90.164L31.56,90.276L31.498,90.387L31.435,90.498L31.372,90.609L31.308,90.719L31.244,90.828L31.179,90.938L31.113,91.047L31.047,91.155L30.98,91.263L30.912,91.371L30.844,91.478L30.775,91.585L30.705,91.691L30.635,91.797L30.564,91.902L30.493,92.007L30.421,92.112L30.348,92.216L30.275,92.319L30.201,92.423L30.127,92.525L30.052,92.627L29.976,92.729L29.9,92.83L29.823,92.931L29.746,93.031L29.668,93.131L29.589,93.231L29.51,93.33L29.43,93.428L29.35,93.526L29.269,93.623L29.187,93.72L29.105,93.817L29.023,93.912L28.94,94.008L28.856,94.103L28.772,94.197L28.687,94.291L28.601,94.384L28.516,94.477L28.429,94.57L28.342,94.662L28.254,94.753L28.166,94.844L28.078,94.934L27.988,95.024L27.899,95.113L27.808,95.201L27.718,95.29L27.626,95.377L27.535,95.464L27.442,95.551L27.349,95.637L27.256,95.722L27.162,95.807L27.068,95.891L26.973,95.975L26.877,96.058L26.781,96.141L26.685,96.223L26.588,96.304L26.491,96.385L26.393,96.465L26.294,96.545L26.196,96.624L26.096,96.703L25.996,96.781L25.896,96.858L25.795,96.935L25.694,97.011L25.592,97.087L25.49,97.162L25.387,97.236L25.284,97.31L25.181,97.383L25.077,97.456L24.972,97.528L24.867,97.599L24.762,97.67L24.656,97.74L24.55,97.81L24.443,97.879L24.336,97.947L24.228,98.015L24.12,98.082L24.012,98.148L23.903,98.214L23.793,98.279L23.684,98.343L23.573,98.407L23.463,98.47L23.352,98.533L23.24,98.595L23.129,98.656L23.016,98.717L22.904,98.776L22.791,98.836L22.677,98.894L22.563,98.952L22.449,99.009L22.334,99.066L22.219,99.122L22.104,99.177L21.988,99.232L21.872,99.286L21.755,99.339L21.639,99.391L21.521,99.443L21.404,99.494L21.285,99.544L21.167,99.594L21.048,99.643L20.929,99.691L20.81,99.739L20.69,99.786L20.57,99.832L20.449,99.877L20.328,99.922L20.207,99.966L20.085,100.01L19.963,100.052L19.841,100.094L19.718,100.135L19.595,100.175L19.472,100.215L19.349,100.254L19.225,100.292L19.1,100.33L18.976,100.366L18.851,100.402L18.726,100.437L18.6,100.472L18.474,100.505L18.348,100.538L18.222,100.57L18.095,100.602L17.968,100.632L17.841,100.662L17.713,100.691L17.585,100.72L17.457,100.747L17.328,100.774L17.2,100.8L17.07,100.825L16.941,100.849L16.812,100.873L16.682,100.896L16.551,100.918L16.421,100.939L16.29,100.959L16.159,100.979L16.028,100.998L15.897,101.016L15.765,101.033L15.633,101.049L15.501,101.065L15.368,101.08L15.236,101.094L15.103,101.107L14.969,101.119L14.836,101.13L14.702,101.141L14.568,101.151L14.434,101.16L14.3,101.168L14.165,101.175L14.03,101.182L13.895,101.187L13.76,101.192L13.625,101.196L13.489,101.199L13.353,101.201L13.217,101.202L13.081,101.203L12.945,101.202L12.809,101.201L12.673,101.199L12.537,101.196L12.402,101.192L12.266,101.187L12.131,101.182L11.996,101.175L11.862,101.168L11.727,101.16L11.593,101.151L11.459,101.141L11.326,101.13L11.192,101.119L11.059,101.107L10.926,101.094L10.793,101.08L10.661,101.065L10.529,101.049L10.397,101.033L10.265,101.016L10.134,100.998L10.002,100.979L9.871,100.959L9.741,100.939L9.61,100.918L9.48,100.896L9.35,100.873L9.221,100.849L9.091,100.825L8.962,100.8L8.833,100.774L8.705,100.747L8.577,100.72L8.449,100.691L8.321,100.662L8.194,100.632L8.067,100.602L7.94,100.57L7.814,100.538L7.687,100.505L7.562,100.472L7.436,100.437L7.311,100.402L7.186,100.366L7.061,100.33L6.937,100.292L6.813,100.254L6.69,100.215L6.566,100.175L6.443,100.135L6.321,100.094L6.198,100.052L6.077,100.01L5.955,99.966L5.834,99.922L5.713,99.877L5.592,99.832L5.472,99.786L5.352,99.739L5.233,99.691L5.113,99.643L4.995,99.594L4.876,99.544L4.758,99.494L4.641,99.443L4.523,99.391L4.406,99.339L4.29,99.286L4.174,99.232L4.058,99.177L3.942,99.122L3.827,99.066L3.713,99.009L3.598,98.952L3.485,98.894L3.371,98.836L3.258,98.776L3.145,98.717L3.033,98.656L2.921,98.595L2.81,98.533L2.699,98.47L2.588,98.407L2.478,98.343L2.368,98.279L2.259,98.214L2.15,98.148L2.042,98.082L1.934,98.015L1.826,97.947L1.719,97.879L1.612,97.81L1.506,97.74L1.4,97.67L1.295,97.599L1.19,97.528L1.085,97.456L0.981,97.383L0.877,97.31L0.774,97.236L0.672,97.162L0.569,97.087L0.468,97.011L0.366,96.935L0.266,96.858L0.165,96.781L0.066,96.703L-0.034,96.624L-0.133,96.545L-0.231,96.465L-0.329,96.385L-0.426,96.304L-0.523,96.223L-0.62,96.141L-0.716,96.058L-0.811,95.975L-0.906,95.891L-1,95.807L-1.094,95.722L-1.188,95.637L-1.28,95.551L-1.373,95.464L-1.465,95.377L-1.556,95.29L-1.647,95.201L-1.737,95.113L-1.827,95.024L-1.916,94.934L-2.005,94.844L-2.093,94.753L-2.18,94.662L-2.267,94.57L-2.354,94.477L-2.44,94.384L-2.525,94.291L-2.61,94.197L-2.694,94.103L-2.778,94.008L-2.861,93.912L-2.944,93.817L-3.026,93.72L-3.107,93.623L-3.188,93.526L-3.268,93.428L-3.348,93.33L-3.427,93.231L-3.506,93.131L-3.584,93.031L-3.661,92.931L-3.738,92.83L-3.814,92.729L-3.89,92.627L-3.965,92.525L-4.039,92.423L-4.113,92.319L-4.186,92.216L-4.259,92.112L-4.331,92.007L-4.402,91.902L-4.473,91.797L-4.543,91.691L-4.613,91.585L-4.682,91.478L-4.75,91.371L-4.818,91.263L-4.885,91.155L-4.951,91.047L-5.017,90.938L-5.082,90.828L-5.147,90.719L-5.21,90.609L-5.274,90.498L-5.336,90.387L-5.398,90.276L-5.459,90.164L-5.52,90.051L-5.58,89.939L-5.639,89.826L-5.697,89.712L-5.755,89.598L-5.813,89.484L-5.869,89.37L-5.925,89.255L-5.98,89.139L-6.035,89.023L-6.089,88.907L-6.142,88.791L-6.194,88.674L-6.246,88.556L-6.297,88.439L-6.348,88.321L-6.397,88.202L-6.446,88.083L-6.495,87.964L-6.542,87.845L-6.589,87.725L-6.635,87.605L-6.681,87.484L-6.725,87.363L-6.769,87.242L-6.813,87.12L-6.855,86.998L-6.897,86.876L-6.938,86.753L-6.979,86.63L-7.018,86.507L-7.057,86.384L-7.095,86.26L-7.133,86.135L-7.169,86.011L-7.205,85.886L-7.24,85.761L-7.275,85.635L-7.309,85.509L-7.341,85.383L-7.374,85.257L-7.405,85.13L-7.436,85.003L-7.465,84.876L-7.495,84.748L-7.523,84.62L-7.55,84.492L-7.577,84.363L-7.603,84.235L-7.628,84.106L-7.653,83.976L-7.676,83.847L-7.699,83.717L-7.721,83.587L-7.742,83.456L-7.763,83.325L-7.782,83.195L-7.801,83.063L-7.819,82.932L-7.836,82.8L-7.853,82.668L-7.868,82.536L-7.883,82.403L-7.897,82.271L-7.91,82.138L-7.922,82.005L-7.934,81.871L-7.944,81.737L-7.954,81.603L-7.963,81.469L-7.971,81.335L-7.978,81.2L-7.985,81.066L-7.99,80.931L-7.995,80.795L-7.999,80.66L-8.002,80.524L-8.004,80.388L-8.005,80.252L-8.006,80.116L-8.005,79.98L-8.004,79.844L-8.002,79.708L-7.999,79.572L-7.995,79.437L-7.99,79.301L-7.985,79.166L-7.978,79.032L-7.971,78.897L-7.963,78.763L-7.954,78.628L-7.944,78.495L-7.934,78.361L-7.922,78.227L-7.91,78.094L-7.897,77.961L-7.883,77.829L-7.868,77.696L-7.853,77.564L-7.836,77.432L-7.819,77.3L-7.801,77.169L-7.782,77.037L-7.763,76.906L-7.742,76.776L-7.721,76.645L-7.699,76.515L-7.676,76.385L-7.653,76.256L-7.628,76.126L-7.603,75.997L-7.577,75.869L-7.55,75.74L-7.523,75.612L-7.495,75.484L-7.465,75.356L-7.436,75.229L-7.405,75.102L-7.374,74.975L-7.341,74.849L-7.309,74.723L-7.275,74.597L-7.24,74.471L-7.205,74.346L-7.169,74.221L-7.133,74.097L-7.095,73.972L-7.057,73.848L-7.018,73.725L-6.979,73.601L-6.938,73.479L-6.897,73.356L-6.855,73.234L-6.813,73.112L-6.769,72.99L-6.725,72.869L-6.681,72.748L-6.635,72.627L-6.589,72.507L-6.542,72.387L-6.495,72.268L-6.446,72.149L-6.397,72.03L-6.348,71.911L-6.297,71.793L-6.246,71.676L-6.194,71.558L-6.142,71.441L-6.089,71.325L-6.035,71.209L-5.98,71.093L-5.925,70.977L-5.869,70.862L-5.813,70.748L-5.755,70.634L-5.697,70.52L-5.639,70.406L-5.58,70.293L-5.52,70.181L-5.459,70.068L-5.398,69.956L-5.336,69.845L-5.274,69.734L-5.21,69.623L-5.147,69.513L-5.082,69.403L-5.017,69.294L-4.951,69.185L-4.885,69.077L-4.818,68.969L-4.75,68.861L-4.682,68.754L-4.613,68.647L-4.543,68.541L-4.473,68.435L-4.402,68.33L-4.331,68.225L-4.259,68.12L-4.186,68.016L-4.113,67.913L-4.039,67.809L-3.965,67.707L-3.89,67.605L-3.814,67.503L-3.738,67.402L-3.661,67.301L-3.584,67.2L-3.506,67.101L-3.427,67.001L-3.348,66.902L-3.268,66.804L-3.188,66.706L-3.107,66.609L-3.026,66.512L-2.944,66.415L-2.861,66.319L-2.778,66.224L-2.694,66.129L-2.61,66.035L-2.525,65.941L-2.44,65.847L-2.354,65.755L-2.267,65.662L-2.18,65.57L-2.093,65.479L-2.005,65.388L-1.916,65.298L-1.827,65.208L-1.737,65.119L-1.647,65.031L-1.556,64.942L-1.465,64.855L-1.373,64.768L-1.28,64.681L-1.188,64.595L-1.094,64.51L-1,64.425L-0.906,64.341L-0.811,64.257L-0.716,64.174L-0.62,64.091L-0.523,64.009L-0.426,63.928L-0.329,63.847L-0.231,63.767L-0.133,63.687L-0.034,63.608L0.066,63.529L0.165,63.451L0.266,63.374L0.366,63.297L0.468,63.221L0.569,63.145L0.672,63.07L0.774,62.996L0.877,62.922L0.981,62.849L1.085,62.776L1.19,62.704L1.295,62.633L1.4,62.562L1.506,62.492L1.612,62.422L1.719,62.353L1.826,62.285L1.934,62.217L2.042,62.15L2.15,62.084L2.259,62.018L2.368,61.953L2.478,61.889L2.588,61.825L2.699,61.762L2.81,61.699L2.921,61.637L3.033,61.576L3.145,61.515L3.258,61.455L3.371,61.396L3.485,61.338L3.598,61.28L3.713,61.222L3.827,61.166L3.942,61.11L4.058,61.055L4.174,61L4.29,60.946L4.406,60.893L4.523,60.841L4.641,60.789L4.758,60.738L4.876,60.688L4.995,60.638L5.113,60.589L5.233,60.541L5.352,60.493L5.472,60.446L5.592,60.4L5.713,60.354L5.834,60.31L5.955,60.266L6.077,60.222L6.198,60.18L6.321,60.138L6.443,60.097L6.566,60.057L6.69,60.017L6.813,59.978L6.937,59.94L7.061,59.902L7.186,59.866L7.311,59.83L7.436,59.795L7.562,59.76L7.687,59.727L7.814,59.694L7.94,59.662L8.067,59.63L8.194,59.6L8.321,59.57L8.449,59.541L8.577,59.512L8.705,59.485L8.833,59.458L8.962,59.432L9.091,59.407L9.221,59.383L9.35,59.359L9.48,59.336L9.61,59.314L9.741,59.293L9.871,59.272L10.002,59.253L10.134,59.234L10.265,59.216L10.397,59.199L10.529,59.182L10.661,59.167L10.793,59.152L10.926,59.138L11.059,59.125L11.192,59.113L11.326,59.101L11.459,59.091L11.593,59.081L11.727,59.072L11.862,59.064L11.996,59.057L12.131,59.05L12.266,59.045L12.402,59.04L12.537,59.036L12.673,59.033L12.809,59.031L12.945,59.03L13.081,59.029L13.217,59.03ZM12.955,60.721L12.83,60.722L12.705,60.724L12.58,60.727L12.455,60.73L12.331,60.735L12.206,60.74L12.082,60.746L11.958,60.752L11.835,60.76L11.711,60.768L11.588,60.777L11.465,60.787L11.342,60.797L11.22,60.808L11.097,60.821L10.975,60.833L10.853,60.847L10.732,60.861L10.61,60.876L10.489,60.892L10.368,60.909L10.248,60.926L10.127,60.944L10.007,60.963L9.887,60.982L9.767,61.002L9.648,61.023L9.529,61.045L9.41,61.068L9.291,61.091L9.173,61.115L9.055,61.139L8.937,61.164L8.819,61.19L8.702,61.217L8.585,61.245L8.468,61.273L8.352,61.302L8.235,61.331L8.119,61.361L8.004,61.392L7.888,61.424L7.773,61.456L7.658,61.489L7.544,61.523L7.43,61.557L7.316,61.593L7.202,61.628L7.089,61.665L6.976,61.702L6.863,61.74L6.751,61.778L6.639,61.817L6.527,61.857L6.415,61.897L6.304,61.939L6.194,61.98L6.083,62.023L5.973,62.066L5.863,62.11L5.753,62.154L5.644,62.199L5.535,62.245L5.427,62.291L5.319,62.338L5.211,62.386L5.103,62.434L4.996,62.483L4.889,62.532L4.783,62.582L4.677,62.633L4.571,62.685L4.466,62.737L4.36,62.789L4.256,62.842L4.151,62.896L4.047,62.951L3.944,63.006L3.841,63.062L3.738,63.118L3.635,63.175L3.533,63.232L3.432,63.29L3.33,63.349L3.229,63.408L3.129,63.468L3.028,63.529L2.929,63.59L2.829,63.652L2.73,63.714L2.632,63.777L2.534,63.84L2.436,63.904L2.338,63.969L2.241,64.034L2.145,64.099L2.049,64.166L1.953,64.232L1.858,64.3L1.763,64.368L1.668,64.436L1.574,64.505L1.481,64.575L1.387,64.645L1.295,64.716L1.202,64.787L1.11,64.859L1.019,64.931L0.928,65.004L0.838,65.077L0.747,65.151L0.658,65.226L0.569,65.3L0.48,65.376L0.392,65.452L0.304,65.529L0.216,65.606L0.13,65.683L0.043,65.761L-0.043,65.84L-0.128,65.919L-0.213,65.999L-0.298,66.079L-0.382,66.159L-0.465,66.24L-0.548,66.322L-0.631,66.404L-0.713,66.487L-0.795,66.57L-0.876,66.653L-0.956,66.737L-1.037,66.822L-1.116,66.907L-1.195,66.992L-1.274,67.078L-1.352,67.165L-1.43,67.252L-1.507,67.339L-1.583,67.427L-1.659,67.515L-1.735,67.604L-1.81,67.693L-1.884,67.783L-1.958,67.873L-2.031,67.963L-2.104,68.054L-2.176,68.146L-2.248,68.237L-2.319,68.33L-2.39,68.423L-2.46,68.516L-2.53,68.609L-2.599,68.703L-2.667,68.798L-2.735,68.893L-2.803,68.988L-2.87,69.084L-2.936,69.18L-3.001,69.276L-3.067,69.373L-3.131,69.471L-3.195,69.569L-3.258,69.667L-3.321,69.765L-3.384,69.864L-3.445,69.964L-3.506,70.064L-3.567,70.164L-3.627,70.264L-3.686,70.365L-3.745,70.467L-3.803,70.568L-3.86,70.67L-3.917,70.773L-3.974,70.876L-4.029,70.979L-4.084,71.083L-4.139,71.187L-4.193,71.291L-4.246,71.396L-4.299,71.501L-4.351,71.606L-4.402,71.712L-4.453,71.818L-4.503,71.924L-4.552,72.031L-4.601,72.138L-4.649,72.246L-4.697,72.354L-4.744,72.462L-4.79,72.57L-4.836,72.679L-4.881,72.789L-4.926,72.898L-4.969,73.008L-5.012,73.118L-5.055,73.229L-5.097,73.339L-5.138,73.451L-5.178,73.562L-5.218,73.674L-5.257,73.786L-5.296,73.898L-5.333,74.011L-5.37,74.124L-5.407,74.237L-5.443,74.351L-5.478,74.465L-5.512,74.579L-5.546,74.694L-5.579,74.808L-5.611,74.923L-5.643,75.039L-5.674,75.154L-5.704,75.27L-5.733,75.387L-5.762,75.503L-5.79,75.62L-5.818,75.737L-5.845,75.854L-5.871,75.972L-5.896,76.09L-5.921,76.208L-5.944,76.326L-5.968,76.445L-5.99,76.564L-6.012,76.683L-6.033,76.802L-6.053,76.922L-6.072,77.042L-6.091,77.162L-6.109,77.283L-6.126,77.403L-6.143,77.524L-6.159,77.645L-6.174,77.767L-6.188,77.888L-6.202,78.01L-6.215,78.132L-6.227,78.255L-6.238,78.377L-6.248,78.5L-6.258,78.623L-6.267,78.746L-6.275,78.87L-6.283,78.993L-6.29,79.117L-6.295,79.241L-6.301,79.366L-6.305,79.49L-6.309,79.615L-6.311,79.74L-6.313,79.865L-6.314,79.99L-6.315,80.116L-6.314,80.242L-6.313,80.367L-6.311,80.492L-6.309,80.617L-6.305,80.742L-6.301,80.866L-6.295,80.991L-6.29,81.115L-6.283,81.239L-6.275,81.362L-6.267,81.486L-6.258,81.609L-6.248,81.732L-6.238,81.855L-6.227,81.977L-6.215,82.1L-6.202,82.222L-6.188,82.344L-6.174,82.465L-6.159,82.587L-6.143,82.708L-6.126,82.829L-6.109,82.949L-6.091,83.07L-6.072,83.19L-6.053,83.31L-6.033,83.43L-6.012,83.549L-5.99,83.668L-5.968,83.787L-5.944,83.906L-5.921,84.024L-5.896,84.142L-5.871,84.26L-5.845,84.378L-5.818,84.495L-5.79,84.612L-5.762,84.729L-5.733,84.845L-5.704,84.962L-5.674,85.077L-5.643,85.193L-5.611,85.308L-5.579,85.424L-5.546,85.538L-5.512,85.653L-5.478,85.767L-5.443,85.881L-5.407,85.995L-5.37,86.108L-5.333,86.221L-5.296,86.334L-5.257,86.446L-5.218,86.558L-5.178,86.67L-5.138,86.781L-5.097,86.892L-5.055,87.003L-5.012,87.114L-4.969,87.224L-4.926,87.334L-4.881,87.443L-4.836,87.553L-4.79,87.661L-4.744,87.77L-4.697,87.878L-4.649,87.986L-4.601,88.094L-4.552,88.201L-4.503,88.308L-4.453,88.414L-4.402,88.52L-4.351,88.626L-4.299,88.731L-4.246,88.836L-4.193,88.941L-4.139,89.045L-4.084,89.149L-4.029,89.253L-3.974,89.356L-3.917,89.459L-3.86,89.562L-3.803,89.664L-3.745,89.765L-3.686,89.867L-3.627,89.968L-3.567,90.068L-3.506,90.168L-3.445,90.268L-3.384,90.368L-3.321,90.467L-3.258,90.565L-3.195,90.663L-3.131,90.761L-3.067,90.858L-3.001,90.955L-2.936,91.052L-2.87,91.148L-2.803,91.244L-2.735,91.339L-2.667,91.434L-2.599,91.529L-2.53,91.623L-2.46,91.716L-2.39,91.809L-2.319,91.902L-2.248,91.994L-2.176,92.086L-2.104,92.178L-2.031,92.269L-1.958,92.359L-1.884,92.449L-1.81,92.539L-1.735,92.628L-1.659,92.717L-1.583,92.805L-1.507,92.893L-1.43,92.98L-1.352,93.067L-1.274,93.154L-1.195,93.24L-1.116,93.325L-1.037,93.41L-0.956,93.495L-0.876,93.579L-0.795,93.662L-0.713,93.745L-0.631,93.828L-0.548,93.91L-0.465,93.992L-0.382,94.073L-0.298,94.153L-0.213,94.233L-0.128,94.313L-0.043,94.392L0.043,94.471L0.13,94.549L0.216,94.626L0.304,94.703L0.392,94.78L0.48,94.856L0.569,94.931L0.658,95.006L0.747,95.081L0.838,95.155L0.928,95.228L1.019,95.301L1.11,95.373L1.202,95.445L1.295,95.516L1.387,95.587L1.481,95.657L1.574,95.727L1.668,95.796L1.763,95.864L1.858,95.932L1.953,96L2.049,96.066L2.145,96.133L2.241,96.198L2.338,96.263L2.436,96.328L2.534,96.392L2.632,96.455L2.73,96.518L2.829,96.58L2.929,96.642L3.028,96.703L3.129,96.764L3.229,96.823L3.33,96.883L3.432,96.942L3.533,97L3.635,97.057L3.738,97.114L3.841,97.17L3.944,97.226L4.047,97.281L4.151,97.336L4.256,97.389L4.36,97.443L4.466,97.495L4.571,97.547L4.677,97.599L4.783,97.65L4.889,97.7L4.996,97.749L5.103,97.798L5.211,97.846L5.319,97.894L5.427,97.941L5.535,97.987L5.644,98.033L5.753,98.078L5.863,98.122L5.973,98.166L6.083,98.209L6.194,98.252L6.304,98.293L6.415,98.335L6.527,98.375L6.639,98.415L6.751,98.454L6.863,98.492L6.976,98.53L7.089,98.567L7.202,98.604L7.316,98.639L7.43,98.675L7.544,98.709L7.658,98.743L7.773,98.776L7.888,98.808L8.004,98.84L8.119,98.871L8.235,98.901L8.352,98.93L8.468,98.959L8.585,98.987L8.702,99.015L8.819,99.041L8.937,99.067L9.055,99.093L9.173,99.117L9.291,99.141L9.41,99.164L9.529,99.187L9.648,99.209L9.767,99.229L9.887,99.25L10.007,99.269L10.127,99.288L10.247,99.306L10.368,99.323L10.489,99.34L10.61,99.356L10.732,99.371L10.853,99.385L10.975,99.399L11.097,99.411L11.22,99.423L11.342,99.435L11.465,99.445L11.588,99.455L11.711,99.464L11.835,99.472L11.958,99.48L12.082,99.486L12.206,99.492L12.331,99.497L12.455,99.502L12.58,99.505L12.705,99.508L12.83,99.51L12.955,99.511L13.081,99.512L13.206,99.511L13.332,99.51L13.457,99.508L13.582,99.505L13.707,99.502L13.831,99.497L13.955,99.492L14.08,99.486L14.203,99.48L14.327,99.472L14.451,99.464L14.574,99.455L14.697,99.445L14.82,99.435L14.942,99.423L15.065,99.411L15.187,99.399L15.308,99.385L15.43,99.371L15.551,99.356L15.673,99.34L15.794,99.323L15.914,99.306L16.035,99.288L16.155,99.269L16.275,99.25L16.394,99.229L16.514,99.209L16.633,99.187L16.752,99.164L16.871,99.141L16.989,99.117L17.107,99.093L17.225,99.067L17.343,99.041L17.46,99.015L17.577,98.987L17.694,98.959L17.81,98.93L17.926,98.901L18.042,98.871L18.158,98.84L18.273,98.808L18.388,98.776L18.503,98.743L18.618,98.709L18.732,98.675L18.846,98.639L18.96,98.604L19.073,98.567L19.186,98.53L19.299,98.492L19.411,98.454L19.523,98.415L19.635,98.375L19.746,98.335L19.857,98.293L19.968,98.252L20.079,98.209L20.189,98.166L20.299,98.122L20.408,98.078L20.517,98.033L20.626,97.987L20.735,97.941L20.843,97.894L20.951,97.846L21.058,97.798L21.166,97.749L21.272,97.7L21.379,97.65L21.485,97.599L21.591,97.547L21.696,97.495L21.801,97.443L21.906,97.389L22.01,97.336L22.114,97.281L22.218,97.226L22.321,97.17L22.424,97.114L22.526,97.057L22.628,97L22.73,96.942L22.832,96.883L22.933,96.823L23.033,96.764L23.133,96.703L23.233,96.642L23.332,96.58L23.431,96.518L23.53,96.455L23.628,96.392L23.726,96.328L23.823,96.263L23.92,96.198L24.017,96.133L24.113,96.066L24.209,96L24.304,95.932L24.399,95.864L24.493,95.796L24.588,95.727L24.681,95.657L24.774,95.587L24.867,95.516L24.959,95.445L25.051,95.373L25.143,95.301L25.234,95.228L25.324,95.155L25.414,95.081L25.504,95.006L25.593,94.931L25.682,94.856L25.77,94.78L25.858,94.703L25.945,94.626L26.032,94.549L26.119,94.471L26.205,94.392L26.29,94.313L26.375,94.233L26.46,94.153L26.544,94.073L26.627,93.992L26.71,93.91L26.793,93.828L26.875,93.745L26.956,93.662L27.038,93.579L27.118,93.495L27.198,93.41L27.278,93.325L27.357,93.24L27.436,93.154L27.514,93.067L27.591,92.98L27.668,92.893L27.745,92.805L27.821,92.717L27.896,92.628L27.971,92.539L28.046,92.449L28.12,92.359L28.193,92.269L28.266,92.178L28.338,92.086L28.41,91.994L28.481,91.902L28.552,91.809L28.622,91.716L28.692,91.623L28.761,91.529L28.829,91.434L28.897,91.339L28.964,91.244L29.031,91.148L29.098,91.052L29.163,90.955L29.228,90.859L29.293,90.761L29.357,90.663L29.42,90.565L29.483,90.467L29.545,90.368L29.607,90.268L29.668,90.168L29.728,90.068L29.788,89.968L29.848,89.867L29.906,89.765L29.965,89.664L30.022,89.562L30.079,89.459L30.135,89.356L30.191,89.253L30.246,89.149L30.301,89.045L30.354,88.941L30.408,88.836L30.46,88.731L30.512,88.626L30.564,88.52L30.614,88.414L30.665,88.308L30.714,88.201L30.763,88.094L30.811,87.986L30.859,87.878L30.906,87.77L30.952,87.661L30.998,87.553L31.043,87.443L31.087,87.334L31.131,87.224L31.174,87.114L31.217,87.003L31.258,86.893L31.299,86.781L31.34,86.67L31.38,86.558L31.419,86.446L31.457,86.334L31.495,86.221L31.532,86.108L31.569,85.995L31.604,85.881L31.639,85.767L31.674,85.653L31.708,85.538L31.741,85.424L31.773,85.308L31.804,85.193L31.835,85.077L31.866,84.962L31.895,84.845L31.924,84.729L31.952,84.612L31.98,84.495L32.006,84.378L32.032,84.26L32.058,84.142L32.082,84.024L32.106,83.906L32.129,83.787L32.152,83.668L32.173,83.549L32.194,83.43L32.215,83.31L32.234,83.19L32.253,83.07L32.271,82.949L32.288,82.829L32.305,82.708L32.321,82.587L32.336,82.465L32.35,82.344L32.364,82.222L32.376,82.1L32.388,81.977L32.4,81.855L32.41,81.732L32.42,81.609L32.429,81.486L32.437,81.362L32.445,81.239L32.451,81.115L32.457,80.991L32.462,80.866L32.467,80.742L32.47,80.617L32.473,80.492L32.475,80.367L32.476,80.242L32.477,80.116L32.476,79.99L32.475,79.865L32.473,79.74L32.47,79.615L32.467,79.49L32.462,79.366L32.457,79.241L32.451,79.117L32.445,78.993L32.437,78.87L32.429,78.746L32.42,78.623L32.41,78.5L32.4,78.377L32.388,78.255L32.376,78.132L32.364,78.01L32.35,77.888L32.336,77.767L32.321,77.645L32.305,77.524L32.288,77.403L32.271,77.283L32.253,77.162L32.234,77.042L32.215,76.922L32.194,76.802L32.173,76.683L32.152,76.564L32.129,76.445L32.106,76.326L32.082,76.208L32.058,76.09L32.032,75.972L32.006,75.854L31.98,75.737L31.952,75.62L31.924,75.503L31.895,75.387L31.866,75.27L31.835,75.154L31.804,75.039L31.773,74.923L31.741,74.808L31.708,74.694L31.674,74.579L31.639,74.465L31.604,74.351L31.569,74.237L31.532,74.124L31.495,74.011L31.457,73.898L31.419,73.786L31.38,73.674L31.34,73.562L31.299,73.451L31.258,73.339L31.217,73.229L31.174,73.118L31.131,73.008L31.087,72.898L31.043,72.789L30.998,72.679L30.952,72.57L30.906,72.462L30.859,72.354L30.811,72.246L30.763,72.138L30.714,72.031L30.665,71.924L30.614,71.818L30.564,71.712L30.512,71.606L30.46,71.501L30.408,71.396L30.354,71.291L30.301,71.187L30.246,71.083L30.191,70.979L30.135,70.876L30.079,70.773L30.022,70.67L29.965,70.568L29.906,70.467L29.848,70.365L29.788,70.264L29.728,70.164L29.668,70.064L29.607,69.964L29.545,69.864L29.483,69.765L29.42,69.667L29.357,69.569L29.293,69.471L29.228,69.373L29.163,69.276L29.098,69.18L29.031,69.084L28.964,68.988L28.897,68.893L28.829,68.798L28.761,68.703L28.692,68.609L28.622,68.516L28.552,68.423L28.481,68.33L28.41,68.237L28.338,68.146L28.266,68.054L28.193,67.963L28.12,67.873L28.046,67.783L27.971,67.693L27.896,67.604L27.821,67.515L27.745,67.427L27.668,67.339L27.591,67.252L27.514,67.165L27.436,67.078L27.357,66.992L27.278,66.907L27.198,66.822L27.118,66.737L27.038,66.653L26.956,66.57L26.875,66.487L26.793,66.404L26.71,66.322L26.627,66.24L26.544,66.159L26.46,66.079L26.375,65.999L26.29,65.919L26.205,65.84L26.119,65.761L26.032,65.683L25.945,65.606L25.858,65.529L25.77,65.452L25.682,65.376L25.593,65.3L25.504,65.226L25.414,65.151L25.324,65.077L25.234,65.004L25.143,64.931L25.051,64.859L24.959,64.787L24.867,64.716L24.774,64.645L24.681,64.575L24.588,64.505L24.493,64.436L24.399,64.368L24.304,64.3L24.209,64.232L24.113,64.166L24.017,64.099L23.92,64.034L23.823,63.969L23.726,63.904L23.628,63.84L23.53,63.777L23.431,63.714L23.332,63.652L23.233,63.59L23.133,63.529L23.033,63.468L22.933,63.408L22.832,63.349L22.73,63.29L22.629,63.232L22.526,63.175L22.424,63.118L22.321,63.062L22.218,63.006L22.114,62.951L22.01,62.896L21.906,62.842L21.801,62.789L21.696,62.737L21.591,62.685L21.485,62.633L21.379,62.582L21.272,62.532L21.166,62.483L21.058,62.434L20.951,62.386L20.843,62.338L20.735,62.291L20.626,62.245L20.517,62.199L20.408,62.154L20.299,62.11L20.189,62.066L20.079,62.023L19.968,61.98L19.857,61.939L19.746,61.897L19.635,61.857L19.523,61.817L19.411,61.778L19.299,61.74L19.186,61.702L19.073,61.665L18.959,61.628L18.846,61.593L18.732,61.557L18.618,61.523L18.503,61.489L18.388,61.456L18.273,61.424L18.158,61.392L18.042,61.361L17.926,61.331L17.81,61.302L17.694,61.273L17.577,61.245L17.46,61.217L17.343,61.19L17.225,61.164L17.107,61.139L16.989,61.115L16.871,61.091L16.752,61.068L16.633,61.045L16.514,61.023L16.394,61.002L16.275,60.982L16.155,60.963L16.035,60.944L15.914,60.926L15.794,60.909L15.673,60.892L15.551,60.876L15.43,60.861L15.308,60.847L15.187,60.833L15.065,60.821L14.942,60.808L14.82,60.797L14.697,60.787L14.574,60.777L14.451,60.768L14.327,60.76L14.203,60.752L14.08,60.746L13.955,60.74L13.831,60.735L13.707,60.73L13.582,60.727L13.457,60.724L13.332,60.722L13.206,60.721L13.081,60.72L12.955,60.721Z" style="fill:rgb(0,33,165);"/>
        </g>
        <g transform="matrix(1.21234,0,0,1.21234,-60.1246,-69.1948)">
            <g transform="matrix(1.31766,0,0,1.30507,214.86,340.437)">
                <path d="M55.119,53.065L62.28,57.362L38.165,68.789L32.406,65.773L32.376,59.249L33.415,58.579L33.623,57.018L35.27,57.464L35.459,55.657L37.085,56.128L37.35,54.197L39.161,54.703L39.414,52.584L41.416,53.163L41.65,50.923L43.669,51.583L55.119,43.765L55.119,53.065Z" style="fill:rgb(0,128,0);"/>
            </g>
            <g transform="matrix(1.31766,0,0,1.30507,-96.0758,-116.419)">
                <g transform="matrix(1,0,0,1,235.922,349.889)">
                    <path d="M49.966,24.42L63.422,16.638L75.332,23.529L74.217,24.022L74.075,26.005L72.188,25.279L72.099,27.36L69.864,26.567L69.663,29.06L67.155,28.228L66.968,30.927L64.336,29.759L64.186,32.853L61.476,31.415L61.483,34.725L58.412,33.196L58.412,36.853L55.068,35.127L55.119,39.072L41.917,46.907L41.917,29.076L41.919,29.075C41.918,29.033 41.917,28.991 41.917,28.948C41.917,26.024 44.291,23.65 47.216,23.65C48.223,23.65 49.164,23.932 49.966,24.42Z" style="fill:rgb(0,128,0);"/>
                </g>
                <g transform="matrix(-0.603721,0.797196,-0.797196,-0.603721,344.325,352.162)">
                    <path d="M40.117,23.763C40.117,23.763 39.265,25.192 39.265,25.805C39.265,26.274 39.647,26.654 40.117,26.654C40.586,26.654 40.968,26.274 40.968,25.805C40.968,25.192 40.117,23.763 40.117,23.763Z" style="fill:rgb(157,206,157);"/>
                </g>
                <g transform="matrix(1.48342,0,0,1.48342,210.16,329.163)">
                    <circle cx="48.496" cy="32.118" r="1.152" style="fill:rgb(157,206,157);"/>
                </g>
            </g>
            <g transform="matrix(0.65883,-1.13022,-1.14113,-0.652534,311.316,506.409)">
                <path d="M41.919,29.075C41.918,29.045 63.512,16.449 63.512,16.449L75.465,23.351L74.217,24.022L74.075,26.005L72.188,25.279L72.099,27.36L69.864,26.567L69.663,29.06L67.155,28.228L66.968,30.927L64.336,29.759L64.186,32.853L61.476,31.415L61.483,34.725L58.412,33.196L58.416,36.816L55.175,34.945L55.126,39.007L41.917,46.907L41.917,29.076L41.919,29.075Z" style="fill:rgb(0,128,0);"/>
            </g>
            <g transform="matrix(1.14606,0,0,1.14606,265.625,339.822)">
                <g>
                    <g>
                        <path d="M37.866,37.421L48.912,43.798L48.912,56.552L37.866,62.93L26.82,56.552L26.82,43.798L37.866,37.421Z" style="fill:rgb(250,70,22);"/>
                        <path d="M48.912,43.798L48.912,56.552L37.866,62.93L26.82,56.552L26.82,43.798L37.866,37.421L48.912,43.798ZM28.62,44.837L28.62,55.514L37.866,60.852L47.112,55.514L47.112,44.837L37.866,39.498L28.62,44.837Z" style="fill:rgb(0,33,165);"/>
                    </g>
                </g>
            </g>
        </g>
    </g>
</svg>
